<svg xmlns="http://www.w3.org/2000/svg" fill="none" viewBox="0 0 188 80">
  <path fill="#01264E" d="M21.94 0 0 21.94V80h187.419V0H21.939Z"/>
  <path fill="#fff" d="M144.769 50.874v6.327h-6.935v-6.327h6.935Zm.776 10.194 3.748-2.16v-9.74l-3.748-2.161h-12.224V69.59h4.513v-8.523h2.805l3.987 8.523h4.965l-4.058-8.523h.012Zm-18.825-1.157v-3.868h-7.066v-5.157h9V47.02H115.13v22.584h13.524v-3.867h-9v-5.802h7.066v-.023Zm-15.135-9.037v-3.867H94.873v3.867h6.1v18.717h4.512V50.874h6.1Zm-24.1 0v6.65H80.87v-6.65h6.613ZM80.87 69.591v-8.2h7.39l3.747-2.16V49.166l-3.748-2.16h-11.9V69.59h4.511ZM62.775 52.69l2.806 8.164h-5.706l2.84-8.164h.06Zm-2.351-5.682-8.07 22.584h4.453l1.707-4.87h8.451l1.707 4.87h4.453l-8.07-22.584h-4.643.012ZM44.62 59.91v9.68h4.512V47.007H44.62v9.036h-8.87v-9.036h-4.512V69.59h4.513v-9.68h8.869Zm-22.394 5.968h-7.58v-15.16h7.58v2.9h4.512V49l-3.748-2.16h-9.13L10.11 49v18.586l3.748 2.16h9.131l3.748-2.16v-4.608h-4.512v2.9Z"/>
  <path fill="#65A0FF" d="M167.09 12.546h-3.867v7.066h-5.157v-9h-3.867v13.524h22.584V10.612h-3.867v9h-5.802v-7.066h-.024Zm-4.941 30.128 14.61-9.74v-4.226h-22.584v4.512h14.61v.06l-14.61 9.74v4.226h22.584v-4.513h-14.61v-.06Zm10.91 13.858v8.547h-15.16v-8.547h15.16ZM156.18 52.02l-2.16 3.748v10.099l2.16 3.748h18.586l2.16-3.748V55.768l-2.16-3.748H156.18Z"/>
  <path fill="#FECA00" d="M21.94 21.94H0L21.94 0v21.94Z"/>
</svg>
